<svg xmlns="http://www.w3.org/2000/svg" width="24" height="24" fill="none">
  <path stroke="#101828" stroke-linecap="round" stroke-linejoin="round" stroke-width="2" d="M14.18 4.22C14.18 3 11.68 2 8.58 2 5.5 2 3 3 3 4.22m0 0c0 1.23 2.5 2.22 5.59 2.22s5.59-.99 5.59-2.22v8.62M3 4.22v13.34c0 1.22 2.5 2.22 5.59 2.22 1.5 0 2.85-.24 3.85-.62M3 8.66C3 9.9 5.5 10.9 8.6 10.9s5.59-1 5.59-2.22m-1.67 6.02c-1.01.4-2.4.64-3.92.64-3.09 0-5.59-1-5.59-2.22m17.53.35a5 5 0 0 1 0 7.08 5.05 5.05 0 0 1-7.12 0 5 5 0 0 1 0-7.08 5.05 5.05 0 0 1 7.12 0"/>
</svg>
