<svg xmlns="http://www.w3.org/2000/svg" width="24" height="24" fill="none">
  <g clip-path="url(#a)">
    <path stroke="currentColor" stroke-linecap="round" stroke-linejoin="round" stroke-width="2" d="M9 19c-5 1.5-5-2.5-7-3m14 6v-3.87a3.4 3.4 0 0 0-.94-2.61c3.14-.35 6.44-1.54 6.44-7 0-1.4-.54-2.74-1.5-3.75A5 5 0 0 0 19.91 1S18.73.65 16 2.48c-2.3-.62-4.7-.62-7 0C6.27.65 5.09 1 5.09 1A5 5 0 0 0 5 4.77a5.4 5.4 0 0 0-1.5 3.78c0 5.42 3.3 6.61 6.44 7A3.4 3.4 0 0 0 9 18.13V22"/>
  </g>
  <defs>
    <clipPath id="a">
      <path fill="#fff" d="M0 0h24v24H0z"/>
    </clipPath>
  </defs>
</svg>
