<svg xmlns="http://www.w3.org/2000/svg" width="24" height="24" fill="none">
  <g clip-path="url(#a)">
    <path stroke="#101828" stroke-linecap="round" stroke-linejoin="round" stroke-width="2" d="M22.65 14.39 12 22.13 1.35 14.39a.84.84 0 0 1-.3-.94l1.22-3.78 2.44-7.51A.43.43 0 0 1 5.4 2q.08.07.11.18l2.44 7.49h8.1l2.44-7.51a.43.43 0 0 1 .69-.16q.08.07.11.18l2.44 7.51L23 13.45a.84.84 0 0 1-.35.94"/>
  </g>
  <defs>
    <clipPath id="a">
      <path fill="#fff" d="M0 0h24v24H0z"/>
    </clipPath>
  </defs>
</svg>
