<svg xmlns="http://www.w3.org/2000/svg" width="24" height="24" fill="none">
  <path stroke="currentColor" stroke-linecap="round" stroke-linejoin="round" stroke-width="2" d="m13.32 10.68-7.88 7.88m.85-5.72-3.86-.91a.56.56 0 0 1-.27-.94l3.07-3.07q.33-.32.78-.33l3.47-.03m4.36-3.96a25 25 0 0 1 6.56 6.56m-9.24 7.55.91 3.86c.1.43.63.57.94.27l3.07-3.07c.2-.21.33-.5.33-.78l.03-3.47m4.62-6.17.9-4.34A1.67 1.67 0 0 0 20 2.04l-4.34.9c-1.28.26-2.45.9-3.37 1.82L8.72 8.3a9 9 0 0 0-2.52 5.02v.08a3.88 3.88 0 0 0 4.39 4.4l.08-.02a9 9 0 0 0 5.02-2.51l3.55-3.56a6.7 6.7 0 0 0 1.82-3.37"/>
</svg>
