<svg xmlns="http://www.w3.org/2000/svg" width="24" height="24" fill="none">
  <g stroke="#101828" stroke-linecap="round" stroke-linejoin="round" stroke-width="2" clip-path="url(#a)">
    <path d="M12 15a3 3 0 1 0 0-6 3 3 0 0 0 0 6"/>
    <path d="M19.4 15a1.7 1.7 0 0 0 .33 1.82l.06.06a2 2 0 1 1-2.83 2.83l-.06-.06a1.7 1.7 0 0 0-1.82-.33 1.7 1.7 0 0 0-1 1.51V21a2 2 0 0 1-4 0v-.09A1.65 1.65 0 0 0 9 19.4a1.7 1.7 0 0 0-1.82.33l-.06.06a2 2 0 1 1-2.83-2.83l.06-.06a1.7 1.7 0 0 0 .33-1.82 1.7 1.7 0 0 0-1.51-1H3a2 2 0 1 1 0-4h.09A1.65 1.65 0 0 0 4.6 9a1.7 1.7 0 0 0-.33-1.82l-.06-.06a2 2 0 1 1 2.83-2.83l.06.06a1.7 1.7 0 0 0 1.82.33H9a1.7 1.7 0 0 0 1-1.51V3a2 2 0 1 1 4 0v.09a1.7 1.7 0 0 0 1 1.51 1.7 1.7 0 0 0 1.82-.33l.06-.06a2 2 0 1 1 2.83 2.83l-.06.06a1.7 1.7 0 0 0-.33 1.82V9a1.7 1.7 0 0 0 1.51 1H21a2 2 0 0 1 0 4h-.09a1.7 1.7 0 0 0-1.51 1"/>
  </g>
  <defs>
    <clipPath id="a">
      <path fill="#fff" d="M0 0h24v24H0z"/>
    </clipPath>
  </defs>
</svg>
