<svg xmlns="http://www.w3.org/2000/svg" width="24" height="24" fill="none">
  <path stroke="currentColor" stroke-linecap="round" stroke-linejoin="round" stroke-width="2" d="M14.5 10A1.5 1.5 0 0 1 13 8.5v-5a1.5 1.5 0 1 1 3 0v5c0 .83-.67 1.5-1.5 1.5M20.5 10H19V8.5a1.5 1.5 0 1 1 1.5 1.5M9.5 14c.83 0 1.5.67 1.5 1.5v5a1.5 1.5 0 1 1-3 0v-5c0-.83.67-1.5 1.5-1.5M3.5 14H5v1.5A1.5 1.5 0 1 1 3.5 14M14 14.5c0-.83.67-1.5 1.5-1.5h5a1.5 1.5 0 1 1 0 3h-5a1.5 1.5 0 0 1-1.5-1.5M15.5 19H14v1.5a1.5 1.5 0 1 0 1.5-1.5M10 9.5C10 8.67 9.33 8 8.5 8h-5a1.5 1.5 0 1 0 0 3h5c.83 0 1.5-.67 1.5-1.5M8.5 5H10V3.5A1.5 1.5 0 1 0 8.5 5"/>
</svg>
